<?xml version="1.0" encoding="UTF-8" standalone="no"?>
<!-- Created with Inkscape (http://www.inkscape.org/) -->
<svg xmlns:dc="http://purl.org/dc/elements/1.1/" xmlns:cc="http://creativecommons.org/ns#" xmlns:rdf="http://www.w3.org/1999/02/22-rdf-syntax-ns#" xmlns:svg="http://www.w3.org/2000/svg" xmlns="http://www.w3.org/2000/svg" xmlns:sodipodi="http://sodipodi.sourceforge.net/DTD/sodipodi-0.dtd" xmlns:inkscape="http://www.inkscape.org/namespaces/inkscape" id="svg2" version="1.1" inkscape:version="0.47 r22583" width="90" height="110" sodipodi:docname="jphead.png">
  <defs id="defs6">
    <inkscape:perspective sodipodi:type="inkscape:persp3d" inkscape:vp_x="0 : 0.5 : 1" inkscape:vp_y="0 : 1000 : 0" inkscape:vp_z="1 : 0.5 : 1" inkscape:persp3d-origin="0.5 : 0.33333333 : 1" id="perspective10"/>
  </defs>
  <sodipodi:namedview pagecolor="#ffffff" bordercolor="#666666" borderopacity="1" objecttolerance="10" gridtolerance="10" guidetolerance="10" inkscape:pageopacity="0" inkscape:pageshadow="2" inkscape:window-width="1280" inkscape:window-height="1005" id="namedview4" showgrid="false" inkscape:zoom="2.1454545" inkscape:cx="-13.262712" inkscape:cy="55" inkscape:window-x="-4" inkscape:window-y="-4" inkscape:window-maximized="1" inkscape:current-layer="svg2"/>
  <path style="fill:#000000" d="M 33.282511,108.73718 C 26.406596,107.19588 18.930929,105.892 13.837559,100.5511 9.5423999,96.546293 5.1647399,92.591003 1.2825199,88.178493 -0.15672018,80.628273 0.30688982,72.811883 0.44797982,65.151453 c 0.19311,-5.15654 4.38246008,-9.13799 3.29786008,-14.61126 0.14913,-8.26315 -0.70884,-17.01459 3.40569,-24.56708 1.9853,-5.04585 6.1090991,-8.71366 8.6693391,-13.41226 3.48559,-4.098111 8.611132,-6.235355 12.85922,-9.416937 8.408569,-4.08573098 18.656839,-3.88116098 27.106017,0.01168 5.357412,1.697757 10.619827,4.028968 14.473707,8.272652 6.073915,6.030424 11.383783,13.159814 13.367728,21.635134 1.827218,5.48028 2.031224,11.2502 2.510588,16.93852 1.378812,5.01159 3.196195,9.95142 3.270248,15.25166 0.24817,6.56465 1.314793,13.94819 -2.47195,19.74836 -3.063661,3.93168 -3.305745,9.39963 -6.911298,13.0408 -4.962632,6.247048 -12.332242,10.644108 -20.406529,11.039888 -8.72302,0.91206 -17.674994,1.23007 -26.336089,-0.34543 z m 40.779909,-8.64336 c 6.256638,-3.606557 8.023461,-11.293487 9.24668,-17.863077 1.106099,-9.25236 -1.340742,-18.52341 -4.315799,-27.20765 -1.050743,-3.96308 -3.99248,-2.65283 -3.373976,0.96538 -0.770181,6.05041 -6.7051,8.21505 -12.079346,7.14691 -5.083734,-0.25662 -12.079094,-0.50162 -14.227126,-6.08131 -0.992803,-2.87331 -2.411332,-11.08921 -6.135867,-5.56162 -1.94788,4.3191 -3.344581,9.9994 -0.500806,14.22911 2.277128,4.03569 8.146248,-2.43218 7.964322,1.3404 3.440081,1.07423 2.021792,-7.29421 4.059694,-2.65428 -3.675899,5.1455 4.413817,7.01372 6.780886,10.46673 3.211359,4.15931 3.361015,9.76043 4.786424,14.67464 1.511326,4.03596 0.105078,11.036397 3.109054,13.365177 1.624615,-0.83004 3.159721,-1.82447 4.68586,-2.82041 z M 46.782511,64.714863 c 2.398908,-3.67497 2.807466,1.94278 0,0 z m -24.390035,30.69098 c -0.09287,-9.92488 3.969023,-20.45944 12.618379,-25.93067 3.505482,-2.27986 3.844749,-8.63817 4.06514,-11.25146 -2.723149,1.88267 -4.231909,6.70268 -3.998147,8.58967 -2.924839,-4.09546 -8.740353,-2.1361 -13.0338,-2.69301 -6.054579,1.15556 -8.852039,-4.17739 -10.843389,-8.75029 -3.8893991,1.05015 -2.2413691,9.1528 -3.1620591,12.77359 -0.13912,8.19229 -0.69471,16.72978 1.8926797,24.61911 2.8701494,3.8699 6.7978594,8.090057 11.5148064,9.292587 1.207335,-1.89426 0.776319,-4.497267 0.94639,-6.649527 z m 33.187086,1.13731 c -1.502612,-5.77247 3.444584,1.83794 4.887001,-2.63704 3.134059,-4.33843 2.528316,-11.18726 -1.209162,-14.9397 -6.869821,-5.27086 -17.720574,-7.94497 -24.925931,-1.86018 -2.403819,1.59334 -2.894522,4.29719 0.577433,2.02284 7.659598,-4.36015 17.015818,-2.03661 24.272755,1.91522 -5.396817,-0.65857 -10.482811,-4.51379 -16.164896,-3.09275 -5.579666,1.12515 -12.263619,2.16051 -15.657698,7.267 -2.518348,4.09971 2.093794,13.45897 6.699865,7.84822 3.732732,-2.54014 -2.189358,3.24228 1.128345,4.58404 3.097371,5.997427 8.14054,-1.83887 8.25576,-5.6353 1.384178,-4.56519 -3.570019,-7.87619 -6.152647,-9.28641 4.963913,-0.37768 10.29338,1.4535 15.006154,-0.58493 4.816304,-2.32536 -2.378867,3.08692 -3.606405,3.94981 -3.871385,4.04208 -0.16883,10.11534 2.51066,13.767035 2.694184,2.339952 5.181769,-0.37538 4.378766,-3.317855 z m -17.297051,-8.38731 c 2.438046,-1.5996 4.710524,-0.52013 1,0.66847 -1.035849,0.6155 -3.360372,0.0204 -1,-0.66847 z m 12.25,-0.66228 c 4.76467,-0.84856 2.150713,1.629 0,0 z M 4.7825199,83.237633 c -0.75829,-2.80283 1.69787,-8.81343 0.0702,-9.62516 -0.93036,-0.80612 1.72305,-6.19138 0.89,-9.12166 0.33616,-3.31839 -0.76444,-0.13725 -1.46505,1.2344 -0.87948,2.45392 -3.52798008,6.46968 -1.71624,1.39585 0.44782,-2.72048 5.35995,-7.40871 0.95385,-8.27855 -2.97980008,4.3064 -1.73648,10.24823 -2.28822,15.25753 0.23183,5.23018 -0.57046008,10.90985 1.83643,15.74204 2.13069,0.60985 1.50024,-5.18951 1.71906,-6.60445 z m -2.23635,-2.08179 c -1.24321,-1.81217 -0.73183,-8.61197 0.97205,-3.57743 0.2462,0.97289 0.1327,8.22881 -0.97205,3.57743 z m 85.7289961,-11 c -0.175919,-5.37666 0.44996,-11.17646 -2.427714,-15.98594 -0.0047,-5.15564 -5.822063,3.95935 -2.90214,5.92874 1.5814,3.9263 2.044773,8.66304 3.354982,12.36003 -0.731512,-1.67458 0.06096,-7.52203 1.181539,-2.91921 0.702414,3.6582 0.766481,8.32665 -2.525371,9.81698 0.31955,2.6591 1.161217,8.32784 2.623113,2.68096 0.671452,-3.91857 0.661594,-7.91697 0.695591,-11.88156 z m -2.052395,-7.382 c 0.223667,-1.60656 -4.499424,-4.34123 -1.106838,-4.35622 1.745699,0.85426 3.292433,10.23013 1.106838,4.35622 z m -11.44026,-11.04657 c 1.165948,-5.98865 -4.800879,-8.90316 -9.9062,-8.56684 -5.29466,-0.15375 -10.710088,-0.84528 -15.945209,0.0609 -1.795199,1.74345 -0.799973,4.24718 0.266589,0.67208 0.270768,3.35669 -2.31328,11.60779 4.225402,11.28705 7.101078,0.63581 14.238337,0.68828 21.359418,0.97533 0,-1.47619 0,-2.95238 0,-4.42857 z m -34,-0.50633 c 0.656248,-5.31541 -3.017214,-9.56584 -8.551693,-8.04299 -5.264241,0.32937 -11.354307,-0.95099 -15.870549,2.40647 -0.916,1.36526 -4.35094,5.75989 -2.62254,6.5036 8.693987,0.74532 17.414468,1.83864 26.127448,1.79663 1.097994,-0.35212 0.846239,-1.79686 0.917334,-2.66371 z m -28.999992,0.9349 c -2.4686191,-3.85161 -2.4895891,3.76678 0,0 z m 68.563163,-3.08333 c -1.183245,-7.40638 -7.979107,-12.6005 -8.498687,-20.20015 0.495841,-5.13659 -3.399595,-8.65372 -7.136844,-11.42908 -3.632716,-2.84171 -7.581988,-7.7687157 -12.635494,-4.960438 -9.082322,1.919278 -18.671962,0.383058 -27.554962,3.287418 -7.132406,3.20631 -9.409586,11.43267 -11.858156,18.21287 -1.33307,4.87024 -3.3038191,9.95959 -2.46188,15.0522 4.71855,0.67648 2.27861,-7.22188 6.01935,-9.23806 3.48758,-4.13095 9.44163,-3.47221 14.289776,-4.32504 6.116941,-1.25488 10.581959,6.03874 16.630613,4.22258 2.222829,-5.18908 8.606596,-5.50352 13.523452,-4.89353 5.07581,0.41584 10.86582,2.05521 13.035226,7.18905 0.08991,2.50922 6.342991,5.93523 5.065737,5.78812 -7.028309,-2.05223 0.0041,6.88654 1.581869,1.29406 z m -32.563171,-1.778 c -2.412888,-0.78023 -6.072428,0.581 -6.346615,-3.51355 -3.844339,-1.0995 2.176759,6.81827 5.392037,4.35082 0.395221,-0.0632 0.968179,-0.34994 0.954578,-0.83727 z m -1.229167,-2.95117 c -1.443455,-3.81291 -5.431016,1.84725 -1.084537,1.37597 0.545846,-0.26788 0.899129,-0.81531 1.084537,-1.37597 z m 26.729167,-1.1875 c -1.866784,-2.04949 -5.21964,-0.45647 -1.173192,0.7119 0.644705,0.62146 1.952518,0.16618 1.173192,-0.7119 z" id="path2818"/>
  <metadata>
    <rdf:RDF>
      <cc:Work>
        <dc:format>image/svg+xml</dc:format>
        <dc:type rdf:resource="http://purl.org/dc/dcmitype/StillImage"/>
        <cc:license rdf:resource="http://creativecommons.org/licenses/publicdomain/"/>
        <dc:publisher>
          <cc:Agent rdf:about="http://openclipart.org/">
            <dc:title>Open Clip Art Library</dc:title>
          </cc:Agent>
        </dc:publisher>
        <dc:title>Cool Guy Head</dc:title>
        <dc:date>2010-12-28T17:56:14</dc:date>
        <dc:description>A cool guy's head with glasses</dc:description>
        <dc:source>http://openclipart.org/detail/102217/cool-guy-head-by-jpneok</dc:source>
        <dc:creator>
          <cc:Agent>
            <dc:title>jpneok</dc:title>
          </cc:Agent>
        </dc:creator>
        <dc:subject>
          <rdf:Bag>
            <rdf:li>clip art</rdf:li>
            <rdf:li>clipart</rdf:li>
            <rdf:li>cool</rdf:li>
            <rdf:li>glasses</rdf:li>
            <rdf:li>guy's head</rdf:li>
          </rdf:Bag>
        </dc:subject>
      </cc:Work>
      <cc:License rdf:about="http://creativecommons.org/licenses/publicdomain/">
        <cc:permits rdf:resource="http://creativecommons.org/ns#Reproduction"/>
        <cc:permits rdf:resource="http://creativecommons.org/ns#Distribution"/>
        <cc:permits rdf:resource="http://creativecommons.org/ns#DerivativeWorks"/>
      </cc:License>
    </rdf:RDF>
  </metadata>
</svg>
